<svg width="300" height="300" viewBox="0 0 300 300" fill="none" xmlns="http://www.w3.org/2000/svg">
<g clip-path="url(#clip0_614_74)">
<path d="M71.207 121.107V68.5371C71.207 54.9856 82.1927 44 95.7441 44H227.529C241.081 44 252.066 54.9856 252.066 68.5371V220.745C252.066 231.543 260.82 240.297 271.619 240.297V240.297C282.417 240.297 291.171 231.543 291.171 220.745V78.352" stroke="black" stroke-width="5.88891"/>
<path d="M237.389 159.322H120.094C118.739 159.322 117.641 160.421 117.641 161.776C117.641 163.131 118.739 164.23 120.094 164.23H237.389C238.744 164.23 239.843 163.131 239.843 161.776C239.843 160.421 238.744 159.322 237.389 159.322Z" fill="black"/>
<path d="M237.39 183.863H129.872C128.517 183.863 127.418 184.962 127.418 186.317C127.418 187.672 128.517 188.771 129.872 188.771H237.39C238.745 188.771 239.844 187.672 239.844 186.317C239.844 184.962 238.745 183.863 237.39 183.863Z" fill="black"/>
<path d="M237.386 208.398H144.532C143.177 208.398 142.078 209.497 142.078 210.852C142.078 212.207 143.177 213.306 144.532 213.306H237.386C238.741 213.306 239.84 212.207 239.84 210.852C239.84 209.497 238.741 208.398 237.386 208.398Z" fill="black"/>
<path d="M237.387 232.936H154.309C152.954 232.936 151.855 234.034 151.855 235.389C151.855 236.744 152.954 237.843 154.309 237.843H237.387C238.743 237.843 239.841 236.744 239.841 235.389C239.841 234.034 238.743 232.936 237.387 232.936Z" fill="black"/>
<rect x="149.43" y="63.6314" width="87.9663" height="73.6113" rx="22.0834" stroke="black" stroke-width="4.90742"/>
<path d="M64.6815 176.424L68.4942 210.874C68.6473 212.257 69.8159 213.304 71.2071 213.304C72.5984 213.304 73.767 212.257 73.92 210.874L77.7327 176.424C78.163 172.536 75.1191 169.137 71.2071 169.137C67.2952 169.137 64.2512 172.536 64.6815 176.424Z" fill="black"/>
<ellipse cx="71.2071" cy="225.576" rx="7.33213" ry="7.36113" fill="black"/>
<path d="M51.9492 142.201C60.3872 127.17 82.0238 127.171 90.4619 142.201L135.329 222.123C143.593 236.844 132.954 255.017 116.072 255.017H26.3389C9.45729 255.017 -1.18177 236.844 7.08203 222.123L51.9492 142.201Z" stroke="black" stroke-width="4.90742"/>
<path d="M269.172 78.3521C269.172 76.997 270.27 75.8984 271.626 75.8984H291.719C293.074 75.8984 294.172 76.997 294.172 78.3521V78.3521C294.172 79.7073 293.074 80.8059 291.719 80.8059H271.626C270.27 80.8059 269.172 79.7073 269.172 78.3521V78.3521Z" fill="black"/>
<path d="M137.185 63.6289H85.8795C84.5243 63.6289 83.4258 64.7275 83.4258 66.0826C83.4258 67.4378 84.5243 68.5363 85.8795 68.5363H137.185C138.54 68.5363 139.639 67.4378 139.639 66.0826C139.639 64.7275 138.54 63.6289 137.185 63.6289Z" fill="black"/>
<path d="M137.185 85.7129H85.8795C84.5243 85.7129 83.4258 86.8115 83.4258 88.1666C83.4258 89.5217 84.5243 90.6203 85.8795 90.6203H137.185C138.54 90.6203 139.639 89.5217 139.639 88.1666C139.639 86.8115 138.54 85.7129 137.185 85.7129Z" fill="black"/>
<path d="M137.185 110.25H85.8795C84.5243 110.25 83.4258 111.349 83.4258 112.704C83.4258 114.059 84.5243 115.157 85.8795 115.157H137.185C138.54 115.157 139.639 114.059 139.639 112.704C139.639 111.349 138.54 110.25 137.185 110.25Z" fill="black"/>
<path d="M137.182 132.334H102.985C101.63 132.334 100.531 133.433 100.531 134.788C100.531 136.143 101.63 137.241 102.985 137.241H137.182C138.537 137.241 139.636 136.143 139.636 134.788C139.636 133.433 138.537 132.334 137.182 132.334Z" fill="black"/>
</g>
<defs>
<clipPath id="clip0_614_74">
<rect width="300" height="300" fill="white"/>
</clipPath>
</defs>
</svg>
